<svg xmlns="http://www.w3.org/2000/svg" xmlns:xlink="http://www.w3.org/1999/xlink" version="1.1" x="0px" y="0px" viewBox="-54 41.9 189.3 218.1" enable-background="new -54 41.9 189.3 218.1" xml:space="preserve" style="fill: rgb(0, 0, 0);" role="img" aria-label="Fox Vector ">
<g id="__id18_skb6zftq6j">
	<path d="M114,244.6c-25.7,25.7-44,11.7-44.5,11.1c0,0,18.8-20.9,14.2-41.7c-6.1-27.2-6.1-42.1-6.1-42.1   c-0.9-9.5-0.7-17.7,0.1-24.9c0,0,10.6-10.3,13.6-20.3c0,0,5.1,14.6,23.3,18.1c0.5,1.1,0.9,2.2,1.4,3.3c4.2,9.5,12.7,19.6,17.6,41.7   C138.8,213.8,132.1,226.4,114,244.6z" style="fill: rgb(232, 134, 104);"></path>
</g>
<g id="__id19_skb6zftq6j">
	<path d="M114.5,144.7c-18.2-3.5-23.3-18.1-23.3-18.1c-2.9,10-13.6,20.3-13.6,20.3c4.9-41,33.2-47.6,34-47.8   C111.1,99.4,98.7,107,114.5,144.7z" style="fill: rgb(253, 253, 253);"></path>
</g>
<g id="__id20_skb6zftq6j">
	<path d="M72.7,236.7c-1.1,5.4-9.2,18.9-9.2,18.9c-4.6,0.3-10,0.3-13.3,0c-14.4-1.5-16-8-16-8s-4.3-6.4-7.3-17.4   c-1.5-5.4-5.8-12.1-9.6-16.3c-0.7-0.7-4.1-4.8-8.2-10.3c-7.3-2.5,1.2-56.4,11.6-66.5l0,0c0.9-0.4,1.5-0.7,1.5-0.7   c1.8-0.8,3.8-1.8,5.8-2.9c4.1,7.5,5.8,15.9,9.1,20.2c6.1,8,19.6,19.2,25.8,26C84,202.9,72.6,236.7,72.7,236.7z" style="fill: rgb(232, 134, 104);"></path>
</g>
<path id="__id21_skb6zftq6j" opacity="5.000000e-02" d="M62.9,179.8c-6.2-6.8-19.7-18-25.8-26c-3.2-4.3-5-12.7-9.1-20.2l-5,2.4  c-2.5,12.1,8.9,45.7,25.3,61.7c17.4,16.9,10.2,44,15.2,57.9l1-4.1c2.9-2.4,7-9.4,8.2-14.8C72.7,236.7,84,202.9,62.9,179.8z" style="fill: rgb(65, 65, 65);"></path>
<g id="__id22_skb6zftq6j">
	<path d="M-13.8,202.4c-3.1,0-4.8,0.6-4.8,0.6c-10.5-18.1,2.2-66.5,2.2-66.5l0,0l0,0c0.6,0.3,3.8,1.9,7.5,3.5   c0.1,0.1,0.7,0.1,0.9,0.2C-10.2,146.1-27.9,192.4-13.8,202.4z" style="fill: rgb(232, 134, 104);"></path>
</g>
<path id="__id23_skb6zftq6j" d="M8.5,203.1c0,0-0.9,7-2.5,17.1c-0.2,0.9-1,7.1-1,7.1l-8.7-8.8c-3.1-3.1-10.1-15.2-10.1-15.2  c-14.1-8.9,3.2-56.7,5.4-62.5v-0.2c3.9,1.6,8.2,3,11,3c3.9,0,18-6.3,18-6.3C10.2,147.2,3.7,197,8.5,203.1z" style="fill: rgb(253, 253, 253);"></path>
<g id="__id24_skb6zftq6j">
	<path opacity="5.000000e-02" d="M97.2,135.6c3.6,3.7,9.2,7.6,17.4,9.1c-15.9-37.7-3.4-45.3-2.9-45.6   c-0.1,0-1,0.2-2.4,0.7C102.5,105.6,96.5,116.2,97.2,135.6z" style="fill: rgb(65, 65, 65);"></path>
	<path opacity="5.000000e-02" d="M133.5,189.7c-4.9-22.1-13.3-32.2-17.6-41.7c-0.5-1.1-1-2.2-1.4-3.3   c-8.2-1.6-13.7-5.4-17.4-9.1c0.2,4.4,0.6,9.3,1.6,14.7c2.2,13.1,11.9,22.3,15.2,51.1c1.2,26.8-9.7,51.1-9.7,51.1   c4.2-2.2,9.7-7.8,9.7-7.8C132.1,226.4,138.8,213.8,133.5,189.7z" style="fill: rgb(65, 65, 65);"></path>
</g>
<g id="__id25_skb6zftq6j">
	<path d="M50.6,86.9C39,80.7,36.8,75,37.4,69.6c0.5-4.6,5.6-9.4,5.6-9.4c-0.5,0.1-1,0.2-1.4,0.2   c-7.7,0-6.7-8.8-6.7-8.8c-4.2,3.2-7.9,7.6-10.3,13.3c0,0-5.2-4.7-20.2-4.7c-17.9,0-20.3,5.4-20.3,5.4c-2.4-5.7-6.1-10.1-10.3-13.4   c0,0,1,8.8-6.7,8.8c-0.4,0-0.9-0.1-1.4-0.2c0,0,5.1,4.8,5.6,9.4c0.6,5.4-1.6,11.1-13.2,17.3c1.4,1.2,3,2.3,4.7,3.3   c0,0-3.7,14.6-1.4,18.5c0,0,29.9,28.1,38.2,16.9c0,0,4.4,5.7,9.2,0c8.2,11.2,38.7-17.6,38.7-17.6c2.3-3.9-1.5-18.5-1.5-18.5   C47.7,89.2,49.2,88.1,50.6,86.9z" style="fill: rgb(232, 134, 104);"></path>
</g>
<g id="__id26_skb6zftq6j">
	<path d="M-42,87.6c-4.5-3.7-7.4-8.1-9.3-12.5c8.6-2.1,4.9-19.1,4.8-19.6c0.3,0.1,8,4.4,12.1,5.3   c0,0,5.1,4.8,5.6,9.4C-28.2,75.7-30.3,81.3-42,87.6z" style="fill: rgb(253, 253, 253);"></path>
</g>
<g id="__id27_skb6zftq6j">
	<path d="M49.5,127.7c-3.7,2.3-11.6,6.9-18.8,10.7l-7.7,3.7l0,0c-4,1.8-14.9,6.6-18.9,6.6c-2.9,0-7.5-1.6-11.6-3.3   l0,0l-8.5-3.9h-0.1l0,0c-8.3-3.8-20-10.2-24.9-13.1c-6.7-4.1,2.2-18.9,2.2-18.9s29.9,28.1,38.2,16.9c0,0,4.4,5.7,9.2,0   c8.2,11.2,38.7-17.6,38.7-17.6S56.3,123.6,49.5,127.7z" style="fill: rgb(253, 253, 253);"></path>
</g>
<path id="__id28_skb6zftq6j" opacity="5.000000e-02" d="M45.9,90.3c1.7-1.1,3.3-2.2,4.7-3.3c-4.4-2.4-7.4-4.6-9.5-6.8  c-1.8,9.2-6.5,25.3-6.3,39.1c4.9-3.9,12.5-10.3,12.5-10.3C49.6,104.9,45.9,90.3,45.9,90.3z" style="fill: rgb(65, 65, 65);"></path>
<path id="__id29_skb6zftq6j" opacity="5.000000e-02" d="M30.7,138.4c4.1-2.3,16.6-9.3,18.8-10.7c6.7-4.1-2.2-18.9-2.2-18.9  s-7.7,6.5-12.5,10.3C34.9,125,30.5,132.5,30.7,138.4z" style="fill: rgb(65, 65, 65);"></path>
<g id="__id30_skb6zftq6j">
	<path d="M59.9,74.4c-1.8,4.5-4.8,8.8-9.3,12.5C39,80.7,36.8,75,37.4,69.6c0.5-4.6,5.6-9.4,5.6-9.4   c4.1-1,11.8-5.2,12.1-5.3C55,55.3,51.3,72.3,59.9,74.4z" style="fill: rgb(253, 253, 253);"></path>
</g>
<path id="__id31_skb6zftq6j" opacity="5.000000e-02" d="M50.6,86.9c4.5-3.7,7.4-8.1,9.3-12.5c-8.6-2.1-4.9-19.1-4.8-19.6  c-0.1,0.1-2.2,1.2-4.7,2.4c-2.4,4.6-4.8,9.8-7.2,15.7c-0.8,2-1.5,4.4-2.1,7.1C43.2,82.3,46.2,84.6,50.6,86.9z" style="fill: rgb(65, 65, 65);"></path>
<g id="__id32_skb6zftq6j">
	<path d="M55.1,54.8c-0.1,0.4-3.8,17.5,4.8,19.6c5.8-14.1,0.8-29.5-0.3-32.5c-3,4.1-6,9.2-9.2,15.3   C52.9,56,55,54.9,55.1,54.8z" style="fill: rgb(65, 65, 65);"></path>
	<g>
		<path d="M-20.7,112.5c0-2,0.9-3.6,2-3.6s2,1.6,2,3.6s-0.9,3.6-2,3.6S-20.7,114.5-20.7,112.5z" style="fill: rgb(65, 65, 65);"></path>
		<path d="M27.3,112.5c0-2,0.9-3.6,2-3.6s2,1.6,2,3.6s-0.9,3.6-2,3.6C28.1,116.1,27.3,114.5,27.3,112.5z" style="fill: rgb(65, 65, 65);"></path>
		<path d="M4.2,131.2c3.5,0,6.5-2.6,6.5-4.4c0-1.2-3.8-1.7-6.4-1.7c-3.2,0-6.3,0.5-6.3,1.7    C-2.1,128.7,0.7,131.2,4.2,131.2z" style="fill: rgb(65, 65, 65);"></path>
		<g>
			<path d="M-33,61c-0.4,0-0.9-0.1-1.4-0.2c-4.1-1-11.8-5.2-12.1-5.3c0.1,0.4,3.8,17.5-4.8,19.6     c-6.4-15.7,0.5-33,0.5-33s13.7,1.5,24.5,10.2C-26.2,52.2-25.3,61-33,61z" style="fill: rgb(65, 65, 65);"></path>
			<path d="M59.9,74.4c-8.6-2.1-4.9-19.1-4.8-19.6c-0.3,0.1-8,4.4-12.1,5.3c-0.5,0.1-1,0.2-1.4,0.2     c-7.7,0-6.7-8.8-6.7-8.8c10.8-8.6,24.7-9.6,24.7-9.6S66.3,58.7,59.9,74.4z" style="fill: rgb(65, 65, 65);"></path>
			<g>
				<g>
					<path d="M-8.3,249.9h-9.9c-0.3,0-0.6-0.3-0.6-0.6v-47.4c0-1.3,1.1-2.4,2.4-2.4h2.8c3.3,0,6,2.7,6,5.9v43.8       C-7.7,249.7-8,249.9-8.3,249.9z" style="fill: rgb(65, 65, 65);"></path>
					<path d="M-25.3,255.7h11.5c3.3,0,6-2.8,6-6.2v-3.7h-10.1c-1.5,0-8.5,3.9-8.5,8.7l0,0       C-26.4,255.2-25.9,255.7-25.3,255.7z" style="fill: rgb(65, 65, 65);"></path>
				</g>
				<g>
					<path d="M12,251.5l-9.8-1.4c-0.3,0-0.6-0.4-0.5-0.7l6.9-46.9c0.2-1.3,1.4-2.2,2.7-2l2.7,0.4       c3.3,0.5,5.5,3.5,5,6.7l-6.3,43.3C12.7,251.3,12.4,251.6,12,251.5z" style="fill: rgb(65, 65, 65);"></path>
					<path d="M-5.6,254.7l11.4,1.7c3.3,0.5,6.4-1.9,6.9-5.3l0.5-3.6L3.1,246c-1.5-0.2-9,2.6-9.7,7.4l0,0       C-6.6,254.1-6.2,254.6-5.6,254.7z" style="fill: rgb(65, 65, 65);"></path>
				</g>
				<path d="M24.8,254.7l0.4-8.3c0-0.4,0.3-0.7,0.7-0.7l41.6,0.2c1.6,0,2.8,1.3,2.8,2.9l0,0c0,3.9-3.2,7.1-7.2,7.1      l-36.3-0.3C26.5,255.6,24.8,255.1,24.8,254.7z" style="fill: rgb(65, 65, 65);"></path>
				<path d="M16.8,244.4l5.6,8.7c1.6,2.5,5,3.2,7.6,1.5l2.8-1.8l-5-7.7c-0.7-1.1-7.1-4.5-10.7-2.2l0,0      C16.7,243.3,16.5,243.9,16.8,244.4z" style="fill: rgb(65, 65, 65);"></path>
			</g>
		</g>
	</g>
</g>
</svg>